<svg xmlns="http://www.w3.org/2000/svg" width="24" height="24" fill="none"><path fill="#fff" d="M12 22a.968.968 0 0 1-.713-.288A.968.968 0 0 1 11 21V5.825L7.1 9.7a.977.977 0 0 1-.688.287A.93.93 0 0 1 5.7 9.7a.948.948 0 0 1-.275-.7.95.95 0 0 1 .275-.7l5.6-5.6c.1-.1.208-.17.325-.213.117-.041.242-.062.375-.062s.258.02.375.062a.877.877 0 0 1 .325.213l5.6 5.6a.933.933 0 0 1 .275.687c0 .275-.092.513-.275.713-.2.2-.438.3-.713.3a.973.973 0 0 1-.712-.3L13 5.825V21a.97.97 0 0 1-.287.712A.968.968 0 0 1 12 22z"/></svg>